<svg xmlns="http://www.w3.org/2000/svg" width="229.276" height="68.793" viewBox="0 0 229.276 68.793">
    <defs>
        <style>
            .cls-1{fill:#fff}
        </style>
    </defs>
    <g id="Group_72" data-name="Group 72" transform="translate(-196.868 361.617)">
        <g id="Group_72-2" data-name="Group 72" transform="translate(196.868 -346.175)">
            <path id="Path_104" d="M426.144-299.895H196.868v-53.351h229.276zm-228.353-.922h227.43v-51.507H197.79z" class="cls-1" data-name="Path 104" transform="translate(-196.868 353.246)"/>
        </g>
        <g id="Group_73" data-name="Group 73" transform="translate(219.585 -328.544)">
            <path id="Path_105" d="M220.511-331.388v3.628h-11.328v-15.929h11.107v3.651h-6.858v2.389h6.327v3.628h-6.327v2.632z" class="cls-1" data-name="Path 105" transform="translate(-209.183 343.688)"/>
            <path id="Path_106" d="M230.347-331.388v3.628h-11.216v-15.929h4.248v12.3z" class="cls-1" data-name="Path 106" transform="translate(-200.78 343.688)"/>
            <path id="Path_107" d="M239.458-330.325h-6.108l-.994 2.566h-4.381l6.615-15.929h3.628l6.615 15.929h-4.381zm-1.24-3.23l-1.815-4.691-1.813 4.691z" class="cls-1" data-name="Path 107" transform="translate(-193.31 343.688)"/>
            <path id="Path_108" d="M255.313-335.723c0 4.977-3.385 7.963-8.585 7.963h-6.394v-15.929h6.394c5.2.001 8.585 2.989 8.585 7.966zm-4.425 0a4.02 4.02 0 0 0-4.16-4.337h-2.145v8.672h2.145a4.019 4.019 0 0 0 4.159-4.335z" class="cls-1" data-name="Path 108" transform="translate(-182.871 343.688)"/>
            <path id="Path_109" d="M269.727-332.471c0 2.876-2.1 4.711-5.375 4.711h-7.722v-15.929h6.836c3.274 0 5.466 1.262 5.466 4.138a3.175 3.175 0 0 1-2.125 3.252 3.666 3.666 0 0 1 2.92 3.828zm-9.159-8.12v2.787h2.256c1.461 0 2.125-.465 2.125-1.393s-.664-1.395-2.125-1.395zm5.178 7.7c0-1.151-.885-1.727-2.346-1.727h-2.832v3.474h2.832c1.461 0 2.346-.596 2.346-1.747z" class="cls-1" data-name="Path 109" transform="translate(-169.106 343.688)"/>
            <path id="Path_110" d="M277.736-330.325h-6.106l-1 2.566h-4.379l6.615-15.929h3.634l6.615 15.929h-4.381zm-1.238-3.23l-1.815-4.691-1.813 4.691z" class="cls-1" data-name="Path 110" transform="translate(-160.976 343.688)"/>
            <path id="Path_111" d="M284.677-332.8h-1.815v5.043h-4.246v-15.929h6.859c3.761 0 6.637 1.9 6.637 5.442a4.945 4.945 0 0 1-3.141 4.757l3.272 5.729h-4.689zm-1.815-3.54h2.612c1.437 0 2.256-.664 2.256-1.9s-.819-1.9-2.256-1.9h-2.612z" class="cls-1" data-name="Path 111" transform="translate(-150.536 343.688)"/>
            <path id="Path_112" d="M300.344-330.325h-6.106l-1 2.566h-4.379l6.615-15.929h3.628l6.613 15.929h-4.375zm-1.238-3.23l-1.815-4.691-1.813 4.691z" class="cls-1" data-name="Path 112" transform="translate(-141.88 343.688)"/>
            <path id="Path_113" d="M308.013-333.71l-2.544 3.363v2.588h-4.246v-15.929h4.246v7.368l5.4-7.368h4.691l-4.977 6.571 6.174 9.358h-4.826z" class="cls-1" data-name="Path 113" transform="translate(-131.44 343.688)"/>
        </g>
        <g id="Group_74" data-name="Group 74" transform="translate(197.659 -361.617)">
            <path id="Path_114" d="M197.3-353.325l2.763-.612a2.65 2.65 0 0 0 2.682 2.118c.943 0 1.655-.314 1.655-1.026 0-.793-.893-1.026-1.821-1.192l-1.009-.181c-1.291-.232-3.708-.895-3.708-3.542s2.186-3.857 4.733-3.857c2.284 0 4.353.992 4.883 3.774l-2.8.629a2.034 2.034 0 0 0-2.085-1.786c-.694 0-1.455.2-1.455.928 0 .826 1.109 1.092 2 1.241l.944.164c2.35.415 3.525 1.673 3.525 3.658 0 2.9-2.533 3.907-5 3.907-2.694.002-4.532-1.244-5.307-4.223z" class="cls-1" data-name="Path 114" transform="translate(-197.297 361.617)"/>
            <path id="Path_115" d="M214.954-358.741h-3.542v9.2h-3.178v-9.2h-3.542v-2.715h10.262z" class="cls-1" data-name="Path 115" transform="translate(-191.051 361.753)"/>
            <path id="Path_116" d="M212.267-354.223v-7.233h3.178v6.7c0 1.655.778 2.7 2.35 2.7s2.35-1.044 2.35-2.7v-6.7h3.178v7.233c0 3.278-2.549 4.982-5.528 4.982s-5.528-1.704-5.528-4.982z" class="cls-1" data-name="Path 116" transform="translate(-184.652 361.753)"/>
            <path id="Path_117" d="M232.087-355.5c0 3.724-2.533 5.958-6.421 5.958h-4.783v-11.917h4.783c3.889.003 6.421 2.239 6.421 5.959zm-3.311 0a3.007 3.007 0 0 0-3.11-3.243h-1.606v6.488h1.607a3.008 3.008 0 0 0 3.109-3.245z" class="cls-1" data-name="Path 117" transform="translate(-177.375 361.753)"/>
            <path id="Path_118" d="M229.211-361.456h3.178v11.917h-3.178z" class="cls-1" data-name="Path 118" transform="translate(-170.34 361.753)"/>
            <path id="Path_119" d="M233.187-355.362a6.13 6.13 0 0 1 6.488-6.255 6.129 6.129 0 0 1 6.488 6.255 6.12 6.12 0 0 1-6.488 6.257 6.121 6.121 0 0 1-6.488-6.257zm9.666 0a3.179 3.179 0 0 0-3.178-3.442 3.179 3.179 0 0 0-3.178 3.442 3.17 3.17 0 0 0 3.178 3.444 3.17 3.17 0 0 0 3.178-3.444z" class="cls-1" data-name="Path 119" transform="translate(-166.982 361.617)"/>
        </g>
    </g>
</svg>
